<?xml version="1.0" encoding="UTF-8"?>
<svg xmlns="http://www.w3.org/2000/svg" width="4096" height="4096" viewBox="0 0 64 64" fill="none" shape-rendering="geometricPrecision" text-rendering="geometricPrecision">
  <title>GL7T / GL8T / GA7C C · Gulfstream clean winglet</title>
  <defs>
    <filter id="shadow" x="-25%" y="-25%" width="155%" height="165%">
      <feDropShadow dx="1.45" dy="2.55" stdDeviation="1.15" flood-color="#121920" flood-opacity="0.44"/>
    </filter>
  </defs>
  <g filter="url(#shadow)">
    <path d="M27.6 25.3 6.8 32.7c-1.1.4-1.9 1.4-2 2.6l-.3 3.1 23.8-3.6 1.5-2.2-1.6-1.1Zm8.8 0 20.8 7.4c1.1.4 1.9 1.4 2 2.6l.3 3.1-23.8-3.6-1.5-2.2 1.6-1.1Zm-22.5 5.6-7.2-.9 1.2 3.4 6.2 1Zm36.2 0 7.2-.9-1.2 3.4-6.2 1Z" fill="#FDB813" stroke="#121920" stroke-width="2.45" stroke-linejoin="round" stroke-linecap="round" paint-order="stroke fill"/>
    <path d="M27.6 47.8 18 50.8v3.4l11.5-1.9Zm8.8 0 9.6 3v3.4l-11.5-1.9Z" fill="#FDB813" stroke="#121920" stroke-width="2.45" stroke-linejoin="round" stroke-linecap="round" paint-order="stroke fill"/>
    <path d="M32 1.9c2.8 0 4.5 14.9 5.2 23.5v15.4c0 3.3-1.1 6.2-2.8 8.7l-.7 4.5 6.4 4.4v3.2l-6.2-1.7L32 62.2l-1.9-2.3-6.2 1.7v-3.2l6.4-4.4-.7-4.5c-1.7-2.5-2.8-5.4-2.8-8.7V25.4c.7-8.6 2.4-23.5 5.2-23.5Z" fill="#FDB813" stroke="#121920" stroke-width="2.45" stroke-linejoin="round" stroke-linecap="round" paint-order="stroke fill"/>
    <path d="M23 38.2c1.8-.6 3.4.8 3.7 3.1l.6 5.4c-1 1-3.5 1.2-4.7.2l-1-5.9c-.2-1.3.4-2.4 1.4-2.8Zm18 0c-1.8-.6-3.4.8-3.7 3.1l-.6 5.4c1 1 3.5 1.2 4.7.2l1-5.9c.2-1.3-.4-2.4-1.4-2.8Z" fill="#FDB813" stroke="#121920" stroke-width="2.45" stroke-linejoin="round" stroke-linecap="round" paint-order="stroke fill"/>
    <path d="M32 1.9c2.8 0 4.5 14.9 5.2 23.5v15.4c0 3.3-1.1 6.2-2.8 8.7l-.7 4.5 6.4 4.4v3.2l-6.2-1.7L32 62.2l-1.9-2.3-6.2 1.7v-3.2l6.4-4.4-.7-4.5c-1.7-2.5-2.8-5.4-2.8-8.7V25.4c.7-8.6 2.4-23.5 5.2-23.5Z" fill="none" stroke="#FFE16A" stroke-opacity="0.24" stroke-width="0.35" stroke-linejoin="round" stroke-linecap="round"/>
    <path d="M23 38.2c1.8-.6 3.4.8 3.7 3.1l.6 5.4c-1 1-3.5 1.2-4.7.2l-1-5.9c-.2-1.3.4-2.4 1.4-2.8Zm18 0c-1.8-.6-3.4.8-3.7 3.1l-.6 5.4c1 1 3.5 1.2 4.7.2l1-5.9c.2-1.3-.4-2.4-1.4-2.8Z" fill="none" stroke="#FFE16A" stroke-opacity="0.22" stroke-width="0.35" stroke-linejoin="round" stroke-linecap="round"/>
  </g>
</svg>
