<?xml version="1.0" encoding="UTF-8"?>
<svg xmlns="http://www.w3.org/2000/svg" width="4096" height="4096" viewBox="0 0 64 64" fill="none" shape-rendering="geometricPrecision" text-rendering="geometricPrecision">
  <title>GL7T / GL8T / GA7C D · Bombardier smooth-flex</title>
  <defs>
    <filter id="shadow" x="-25%" y="-25%" width="155%" height="165%">
      <feDropShadow dx="1.45" dy="2.55" stdDeviation="1.15" flood-color="#121920" flood-opacity="0.44"/>
    </filter>
  </defs>
  <g filter="url(#shadow)">
    <path d="M27.5 27.2 4.7 36.2c-.9.4-1.5 1.3-1.5 2.3v3.2l24.9-5.7 2-2.9Zm9 0 22.8 9c.9.4 1.5 1.3 1.5 2.3v3.2L35.9 36l-2-2.9Z" fill="#FDB813" stroke="#121920" stroke-width="2.45" stroke-linejoin="round" stroke-linecap="round" paint-order="stroke fill"/>
    <path d="M27.2 49.6 15.2 54.1v3.5l14-2.6Zm9.6 0 12 4.5v3.5l-14-2.6Z" fill="#FDB813" stroke="#121920" stroke-width="2.45" stroke-linejoin="round" stroke-linecap="round" paint-order="stroke fill"/>
    <path d="M32 1.4c3.4 0 5.1 16.2 5.2 24.9v13.4c0 4.1-1.1 7.7-3.2 10.6l-.4 4.2 6.7 4.6v3.1l-6.9-1.8-1.4 2.3-1.4-2.3-6.9 1.8v-3.1l6.7-4.6-.4-4.2c-2.1-2.9-3.2-6.5-3.2-10.6V26.3c.1-8.7 1.8-24.9 5.2-24.9Z" fill="#FDB813" stroke="#121920" stroke-width="2.45" stroke-linejoin="round" stroke-linecap="round" paint-order="stroke fill"/>
    <path d="M21.4 38c2.4-.9 4.7 1 5 4.3l.6 6.6c-1.4 1.4-4.5 1.4-5.9 0L20 41.7c-.2-1.6.4-3.1 1.4-3.7Zm21.2 0c-2.4-.9-4.7 1-5 4.3l-.6 6.6c1.4 1.4 4.5 1.4 5.9 0l1.1-7.2c.2-1.6-.4-3.1-1.4-3.7Z" fill="#FDB813" stroke="#121920" stroke-width="2.45" stroke-linejoin="round" stroke-linecap="round" paint-order="stroke fill"/>
    <path d="M32 1.4c3.4 0 5.1 16.2 5.2 24.9v13.4c0 4.1-1.1 7.7-3.2 10.6l-.4 4.2 6.7 4.6v3.1l-6.9-1.8-1.4 2.3-1.4-2.3-6.9 1.8v-3.1l6.7-4.6-.4-4.2c-2.1-2.9-3.2-6.5-3.2-10.6V26.3c.1-8.7 1.8-24.9 5.2-24.9Z" fill="none" stroke="#FFE16A" stroke-opacity="0.24" stroke-width="0.35" stroke-linejoin="round" stroke-linecap="round"/>
    <path d="M21.4 38c2.4-.9 4.7 1 5 4.3l.6 6.6c-1.4 1.4-4.5 1.4-5.9 0L20 41.7c-.2-1.6.4-3.1 1.4-3.7Zm21.2 0c-2.4-.9-4.7 1-5 4.3l-.6 6.6c1.4 1.4 4.5 1.4 5.9 0l1.1-7.2c.2-1.6-.4-3.1-1.4-3.7Z" fill="none" stroke="#FFE16A" stroke-opacity="0.22" stroke-width="0.35" stroke-linejoin="round" stroke-linecap="round"/>
  </g>
</svg>
