<svg xmlns="http://www.w3.org/2000/svg" viewBox="0 0 1000 1000" width="1000" height="1000">
<path d="M 80.07,412.96 L 80.02,413.32 L 80.00,413.67 L 80.02,414.02 L 80.07,414.38 L 81.65,422.72 L 81.73,423.05 L 81.84,423.38 L 81.98,423.69 L 82.14,423.99 L 86.82,431.64 L 87.06,431.98 L 87.33,432.29 L 87.63,432.57 L 95.08,438.78 L 95.37,439.01 L 95.69,439.20 L 96.02,439.36 L 105.56,443.41 L 105.88,443.53 L 106.21,443.62 L 106.55,443.68 L 117.65,445.14 L 117.70,445.15 L 117.73,445.15 L 117.77,445.16 L 460.60,481.96 L 460.69,481.97 L 461.16,482.05 L 461.34,482.08 L 461.76,482.19 L 461.93,482.25 L 462.34,482.39 L 462.51,482.47 L 462.89,482.65 L 463.05,482.74 L 463.42,482.96 L 463.57,483.07 L 463.92,483.33 L 464.06,483.44 L 464.38,483.73 L 464.51,483.86 L 464.79,484.18 L 464.91,484.33 L 465.17,484.67 L 465.27,484.83 L 465.49,485.20 L 465.57,485.36 L 465.76,485.75 L 465.83,485.92 L 465.97,486.32 L 466.02,486.50 L 466.13,486.92 L 466.16,487.10 L 466.23,487.52 L 466.24,487.71 L 466.27,488.18 L 466.27,488.27 L 466.27,621.36 L 466.27,621.43 L 466.27,621.48 L 466.27,621.55 L 466.92,638.07 L 466.93,638.20 L 466.94,638.29 L 466.95,638.42 L 468.75,654.90 L 468.76,655.00 L 468.77,655.07 L 468.79,655.17 L 471.51,671.73 L 471.53,671.80 L 471.54,671.85 L 471.55,671.93 L 474.99,688.55 L 475.00,688.60 L 475.00,688.63 L 475.01,688.68 L 478.93,705.38 L 478.93,705.40 L 478.94,705.42 L 478.94,705.44 L 483.11,722.20 L 484.28,726.93 L 484.30,727.03 L 484.40,727.51 L 484.42,727.70 L 484.46,728.14 L 484.47,728.33 L 484.47,728.77 L 484.46,728.96 L 484.41,729.40 L 484.38,729.59 L 484.29,730.02 L 484.24,730.21 L 484.10,730.63 L 484.03,730.81 L 483.86,731.22 L 483.77,731.39 L 483.55,731.77 L 483.45,731.93 L 483.20,732.30 L 483.08,732.45 L 482.79,732.78 L 482.66,732.92 L 482.33,733.22 L 482.19,733.35 L 481.84,733.62 L 481.68,733.73 L 481.30,733.96 L 481.14,734.05 L 480.74,734.25 L 480.56,734.32 L 480.15,734.47 L 479.97,734.53 L 479.54,734.64 L 479.35,734.68 L 478.91,734.75 L 478.72,734.77 L 478.23,734.79 L 478.13,734.79 L 331.64,734.79 L 331.15,734.82 L 324.85,735.65 L 324.51,735.71 L 324.18,735.80 L 323.86,735.92 L 318.53,738.18 L 318.20,738.34 L 317.89,738.54 L 317.59,738.76 L 313.48,742.18 L 313.18,742.46 L 312.91,742.77 L 312.68,743.11 L 310.14,747.26 L 309.98,747.56 L 309.84,747.87 L 309.74,748.19 L 309.66,748.52 L 308.81,752.98 L 308.76,753.33 L 308.74,753.68 L 308.76,754.04 L 308.81,754.39 L 309.66,758.84 L 309.74,759.17 L 309.84,759.50 L 309.98,759.81 L 310.14,760.11 L 312.68,764.25 L 312.91,764.59 L 313.18,764.90 L 313.48,765.18 L 317.59,768.61 L 317.89,768.83 L 318.20,769.02 L 318.53,769.18 L 323.87,771.45 L 324.18,771.57 L 324.51,771.65 L 324.85,771.71 L 331.21,772.55 L 331.25,772.56 L 331.44,772.59 L 331.47,772.59 L 475.35,797.01 L 475.71,797.05 L 476.08,797.06 L 476.44,797.03 L 476.80,796.97 L 477.15,796.88 L 477.49,796.75 L 477.82,796.59 L 478.13,796.39 L 478.42,796.17 L 478.69,795.92 L 478.93,795.65 L 479.14,795.35 L 479.33,795.04 L 479.48,794.71 L 479.60,794.36 L 479.69,794.01 L 479.74,793.65 L 479.76,793.28 L 479.76,790.82 L 479.76,790.72 L 479.79,790.24 L 479.81,790.06 L 479.87,789.63 L 479.91,789.44 L 480.01,789.02 L 480.07,788.84 L 480.21,788.43 L 480.29,788.26 L 480.47,787.87 L 480.56,787.71 L 480.79,787.33 L 480.89,787.18 L 481.15,786.83 L 481.27,786.69 L 481.56,786.37 L 481.69,786.23 L 482.02,785.94 L 482.16,785.83 L 482.51,785.57 L 482.67,785.47 L 483.04,785.25 L 483.21,785.16 L 483.60,784.98 L 483.78,784.90 L 484.19,784.76 L 484.36,784.71 L 484.79,784.61 L 484.97,784.57 L 485.40,784.51 L 485.59,784.49 L 486.02,784.48 L 486.21,784.48 L 486.64,784.50 L 486.83,784.52 L 487.26,784.59 L 487.44,784.63 L 487.86,784.74 L 488.04,784.80 L 488.44,784.95 L 488.62,785.02 L 489.01,785.21 L 489.17,785.30 L 489.54,785.53 L 489.69,785.63 L 490.04,785.90 L 490.18,786.02 L 490.50,786.31 L 490.63,786.45 L 490.92,786.77 L 491.03,786.92 L 491.29,787.27 L 491.39,787.43 L 491.61,787.80 L 491.69,787.97 L 491.87,788.37 L 491.94,788.54 L 492.10,789.00 L 492.12,789.08 L 496.37,803.93 L 496.49,804.29 L 496.64,804.63 L 496.83,804.96 L 497.05,805.26 L 497.30,805.54 L 497.58,805.79 L 497.88,806.02 L 498.20,806.22 L 498.54,806.38 L 498.89,806.51 L 499.25,806.60 L 499.63,806.65 L 500.00,806.67 L 500.37,806.65 L 500.75,806.60 L 501.11,806.51 L 501.46,806.38 L 501.80,806.22 L 502.12,806.02 L 502.42,805.79 L 502.70,805.54 L 502.95,805.26 L 503.17,804.96 L 503.36,804.63 L 503.51,804.29 L 503.63,803.93 L 507.88,789.08 L 507.90,789.00 L 508.06,788.54 L 508.13,788.37 L 508.31,787.97 L 508.39,787.80 L 508.61,787.43 L 508.71,787.27 L 508.97,786.92 L 509.08,786.77 L 509.37,786.45 L 509.50,786.31 L 509.82,786.02 L 509.96,785.90 L 510.31,785.63 L 510.46,785.53 L 510.83,785.30 L 510.99,785.21 L 511.38,785.02 L 511.56,784.95 L 511.96,784.80 L 512.14,784.74 L 512.56,784.63 L 512.74,784.59 L 513.17,784.52 L 513.36,784.50 L 513.79,784.48 L 513.98,784.48 L 514.41,784.49 L 514.60,784.51 L 515.03,784.57 L 515.21,784.61 L 515.64,784.71 L 515.81,784.76 L 516.22,784.90 L 516.40,784.98 L 516.79,785.16 L 516.96,785.25 L 517.33,785.47 L 517.49,785.57 L 517.84,785.83 L 517.98,785.94 L 518.31,786.23 L 518.44,786.37 L 518.73,786.69 L 518.85,786.83 L 519.11,787.18 L 519.21,787.33 L 519.44,787.71 L 519.53,787.87 L 519.71,788.26 L 519.79,788.43 L 519.93,788.84 L 519.99,789.02 L 520.09,789.44 L 520.13,789.63 L 520.19,790.06 L 520.21,790.24 L 520.24,790.72 L 520.24,790.82 L 520.24,793.28 L 520.26,793.65 L 520.31,794.01 L 520.40,794.36 L 520.52,794.71 L 520.67,795.04 L 520.86,795.35 L 521.07,795.65 L 521.31,795.92 L 521.58,796.17 L 521.87,796.39 L 522.18,796.59 L 522.51,796.75 L 522.85,796.88 L 523.20,796.97 L 523.56,797.03 L 523.92,797.06 L 524.29,797.05 L 524.65,797.01 L 668.53,772.59 L 668.56,772.59 L 668.75,772.56 L 668.79,772.55 L 675.15,771.71 L 675.49,771.65 L 675.82,771.57 L 676.13,771.45 L 681.47,769.18 L 681.80,769.02 L 682.11,768.83 L 682.41,768.61 L 686.52,765.18 L 686.82,764.90 L 687.09,764.59 L 687.32,764.25 L 689.86,760.11 L 690.02,759.81 L 690.16,759.50 L 690.26,759.17 L 690.34,758.84 L 691.19,754.39 L 691.24,754.04 L 691.26,753.68 L 691.24,753.33 L 691.19,752.98 L 690.34,748.52 L 690.26,748.19 L 690.16,747.87 L 690.02,747.56 L 689.86,747.26 L 687.32,743.11 L 687.09,742.77 L 686.82,742.46 L 686.52,742.18 L 682.41,738.76 L 682.11,738.54 L 681.80,738.34 L 681.47,738.18 L 676.13,735.92 L 675.82,735.80 L 675.49,735.71 L 675.15,735.65 L 668.90,734.83 L 668.41,734.79 L 521.87,734.79 L 521.77,734.79 L 521.28,734.77 L 521.09,734.75 L 520.65,734.68 L 520.46,734.64 L 520.03,734.53 L 519.85,734.47 L 519.44,734.32 L 519.26,734.25 L 518.86,734.05 L 518.70,733.96 L 518.32,733.73 L 518.16,733.62 L 517.81,733.35 L 517.67,733.22 L 517.34,732.92 L 517.21,732.78 L 516.92,732.45 L 516.80,732.30 L 516.55,731.93 L 516.45,731.77 L 516.23,731.39 L 516.14,731.22 L 515.97,730.81 L 515.90,730.63 L 515.76,730.21 L 515.71,730.02 L 515.62,729.59 L 515.59,729.40 L 515.54,728.96 L 515.53,728.77 L 515.53,728.33 L 515.54,728.14 L 515.58,727.70 L 515.60,727.51 L 515.70,727.03 L 515.72,726.93 L 516.89,722.20 L 521.06,705.44 L 521.06,705.42 L 521.07,705.40 L 521.07,705.38 L 524.99,688.68 L 525.00,688.63 L 525.00,688.60 L 525.01,688.55 L 528.45,671.93 L 528.46,671.85 L 528.47,671.80 L 528.49,671.73 L 531.21,655.17 L 531.23,655.07 L 531.24,655.00 L 531.25,654.90 L 533.05,638.42 L 533.06,638.29 L 533.07,638.20 L 533.08,638.07 L 533.73,621.55 L 533.73,621.48 L 533.73,621.43 L 533.73,621.36 L 533.73,488.27 L 533.73,488.18 L 533.76,487.71 L 533.77,487.52 L 533.84,487.10 L 533.87,486.92 L 533.98,486.50 L 534.03,486.32 L 534.17,485.92 L 534.24,485.75 L 534.43,485.36 L 534.51,485.20 L 534.73,484.83 L 534.83,484.67 L 535.09,484.33 L 535.21,484.18 L 535.49,483.86 L 535.62,483.73 L 535.94,483.44 L 536.08,483.33 L 536.43,483.07 L 536.58,482.96 L 536.95,482.74 L 537.11,482.65 L 537.49,482.47 L 537.66,482.39 L 538.07,482.25 L 538.24,482.19 L 538.66,482.08 L 538.84,482.05 L 539.31,481.97 L 539.40,481.96 L 882.23,445.16 L 882.27,445.15 L 882.30,445.15 L 882.35,445.14 L 893.45,443.68 L 893.79,443.62 L 894.12,443.53 L 894.44,443.41 L 903.98,439.36 L 904.31,439.20 L 904.63,439.01 L 904.92,438.78 L 912.37,432.57 L 912.67,432.29 L 912.94,431.98 L 913.18,431.64 L 917.86,423.99 L 918.02,423.69 L 918.16,423.38 L 918.27,423.05 L 918.35,422.72 L 919.93,414.38 L 919.98,414.02 L 920.00,413.67 L 919.98,413.32 L 919.93,412.96 L 918.35,404.62 L 918.27,404.29 L 918.16,403.96 L 918.02,403.65 L 917.86,403.35 L 913.18,395.70 L 912.94,395.36 L 912.67,395.05 L 912.37,394.77 L 904.92,388.56 L 904.63,388.34 L 904.31,388.14 L 903.98,387.98 L 894.44,383.93 L 894.12,383.81 L 893.79,383.72 L 893.45,383.66 L 882.62,382.23 L 882.37,382.21 L 882.21,382.20 L 881.96,382.19 L 540.07,382.19 L 539.98,382.19 L 539.50,382.16 L 539.32,382.14 L 538.89,382.08 L 538.71,382.04 L 538.29,381.94 L 538.11,381.89 L 537.71,381.74 L 537.53,381.67 L 537.14,381.48 L 536.98,381.40 L 536.61,381.17 L 536.46,381.07 L 536.11,380.81 L 535.96,380.70 L 535.64,380.41 L 535.51,380.27 L 535.22,379.95 L 535.11,379.81 L 534.85,379.46 L 534.74,379.31 L 534.52,378.94 L 534.44,378.78 L 534.25,378.38 L 534.18,378.21 L 534.03,377.81 L 533.98,377.63 L 533.87,377.21 L 533.84,377.03 L 533.78,376.60 L 533.76,376.42 L 533.73,375.94 L 533.73,375.84 L 533.73,281.49 L 533.73,281.46 L 533.73,281.43 L 533.73,281.40 L 533.57,272.90 L 533.57,272.83 L 533.57,272.78 L 533.56,272.71 L 533.09,264.34 L 533.08,264.27 L 533.08,264.22 L 533.07,264.15 L 532.29,255.96 L 532.28,255.88 L 532.27,255.83 L 532.27,255.75 L 531.18,247.82 L 531.17,247.74 L 531.16,247.68 L 531.14,247.60 L 529.77,240.00 L 529.75,239.92 L 529.74,239.86 L 529.72,239.78 L 528.08,232.59 L 528.05,232.50 L 528.04,232.44 L 528.01,232.35 L 526.11,225.66 L 526.08,225.56 L 526.06,225.49 L 526.03,225.38 L 523.91,219.27 L 523.86,219.15 L 523.83,219.07 L 523.79,218.96 L 521.47,213.48 L 521.42,213.35 L 521.37,213.26 L 521.31,213.13 L 518.85,208.35 L 518.76,208.20 L 518.71,208.10 L 518.62,207.95 L 516.05,203.94 L 515.93,203.76 L 515.85,203.65 L 515.72,203.48 L 513.13,200.27 L 512.96,200.08 L 512.84,199.95 L 512.65,199.76 L 510.03,197.31 L 509.78,197.10 L 509.52,196.91 L 506.91,195.20 L 506.57,195.00 L 506.21,194.84 L 503.73,193.88 L 503.30,193.74 L 502.85,193.66 L 500.48,193.35 L 500.16,193.33 L 499.84,193.33 L 499.52,193.35 L 497.15,193.66 L 496.70,193.74 L 496.27,193.88 L 493.79,194.84 L 493.43,195.00 L 493.09,195.20 L 490.48,196.91 L 490.22,197.10 L 489.97,197.31 L 487.35,199.76 L 487.16,199.95 L 487.04,200.08 L 486.87,200.27 L 484.28,203.48 L 484.15,203.65 L 484.07,203.76 L 483.95,203.94 L 481.38,207.95 L 481.29,208.10 L 481.24,208.20 L 481.15,208.35 L 478.69,213.13 L 478.63,213.26 L 478.58,213.35 L 478.53,213.48 L 476.21,218.96 L 476.17,219.07 L 476.14,219.15 L 476.09,219.27 L 473.97,225.38 L 473.94,225.49 L 473.92,225.56 L 473.89,225.66 L 471.99,232.35 L 471.96,232.44 L 471.95,232.50 L 471.92,232.59 L 470.28,239.78 L 470.26,239.86 L 470.25,239.92 L 470.23,240.00 L 468.86,247.60 L 468.84,247.68 L 468.83,247.74 L 468.82,247.82 L 467.73,255.75 L 467.73,255.83 L 467.72,255.88 L 467.71,255.96 L 466.93,264.15 L 466.92,264.22 L 466.92,264.27 L 466.91,264.34 L 466.44,272.71 L 466.43,272.78 L 466.43,272.83 L 466.43,272.90 L 466.27,281.40 L 466.27,281.43 L 466.27,281.46 L 466.27,281.49 L 466.27,375.84 L 466.27,375.94 L 466.24,376.42 L 466.22,376.60 L 466.16,377.03 L 466.13,377.21 L 466.02,377.63 L 465.97,377.81 L 465.82,378.21 L 465.75,378.38 L 465.56,378.78 L 465.48,378.94 L 465.26,379.31 L 465.15,379.46 L 464.89,379.81 L 464.78,379.95 L 464.49,380.27 L 464.36,380.41 L 464.04,380.70 L 463.89,380.81 L 463.54,381.07 L 463.39,381.17 L 463.02,381.40 L 462.86,381.48 L 462.47,381.67 L 462.29,381.74 L 461.89,381.89 L 461.71,381.94 L 461.29,382.04 L 461.11,382.08 L 460.68,382.14 L 460.50,382.16 L 460.02,382.19 L 459.93,382.19 L 118.04,382.19 L 117.79,382.20 L 117.63,382.21 L 117.38,382.23 L 106.55,383.66 L 106.21,383.72 L 105.88,383.81 L 105.56,383.93 L 96.02,387.98 L 95.69,388.14 L 95.37,388.34 L 95.08,388.56 L 87.63,394.77 L 87.33,395.05 L 87.06,395.36 L 86.82,395.70 L 82.14,403.35 L 81.98,403.65 L 81.84,403.96 L 81.73,404.29 L 81.65,404.62 L 80.07,412.96 Z" fill="rgb(248, 196, 0)" fill-rule="evenodd" stroke="rgb(18, 25, 32)" stroke-width="11.5" stroke-linejoin="round" stroke-linecap="round"/>
</svg>
