<svg xmlns="http://www.w3.org/2000/svg" viewBox="0 0 1000 1000" width="1000" height="1000">
<path d="M 111.34,547.81 L 111.34,547.86 L 112.84,573.79 L 112.85,573.84 L 112.90,573.85 L 128.06,575.35 L 128.11,575.35 L 128.15,575.34 L 202.77,552.72 L 202.99,552.67 L 203.22,552.64 L 203.45,552.64 L 248.39,554.76 L 248.44,554.76 L 248.47,554.72 L 259.74,536.88 L 259.86,536.72 L 260.00,536.56 L 260.15,536.42 L 260.31,536.30 L 260.48,536.19 L 260.67,536.11 L 260.86,536.04 L 291.90,526.73 L 292.10,526.69 L 292.29,526.66 L 292.49,526.65 L 292.69,526.66 L 324.51,530.09 L 324.55,530.09 L 324.59,530.07 L 350.90,510.82 L 351.07,510.70 L 351.25,510.61 L 351.44,510.54 L 351.64,510.48 L 351.84,510.44 L 352.04,510.43 L 352.25,510.44 L 352.45,510.46 L 394.53,518.29 L 394.58,518.30 L 394.63,518.29 L 443.81,512.07 L 444.01,512.05 L 444.20,512.05 L 444.39,512.08 L 444.58,512.12 L 444.77,512.18 L 444.95,512.26 L 445.12,512.35 L 445.28,512.46 L 445.43,512.59 L 445.56,512.73 L 445.68,512.88 L 445.79,513.04 L 445.88,513.21 L 445.95,513.39 L 446.00,513.58 L 446.04,513.77 L 446.06,513.97 L 456.96,781.56 L 456.96,781.76 L 456.93,781.96 L 456.89,782.16 L 456.83,782.35 L 456.75,782.53 L 456.65,782.71 L 456.54,782.87 L 456.40,783.03 L 456.26,783.16 L 456.10,783.29 L 354.46,853.73 L 354.42,853.76 L 354.41,853.81 L 348.20,889.05 L 348.19,889.10 L 348.23,889.13 L 370.39,906.36 L 370.43,906.39 L 370.48,906.38 L 468.32,882.93 L 468.52,882.89 L 468.72,882.87 L 468.93,882.88 L 469.13,882.90 L 469.33,882.95 L 469.52,883.01 L 469.70,883.09 L 469.88,883.20 L 470.04,883.32 L 470.19,883.45 L 470.33,883.60 L 470.45,883.76 L 470.55,883.94 L 470.64,884.12 L 485.15,920.16 L 485.17,920.20 L 485.21,920.23 L 502.89,929.98 L 502.93,930.00 L 502.95,929.96 L 531.17,883.55 L 531.27,883.39 L 531.40,883.24 L 531.53,883.11 L 531.68,882.98 L 531.84,882.88 L 532.01,882.79 L 532.19,882.71 L 532.37,882.65 L 532.56,882.61 L 532.75,882.59 L 532.95,882.59 L 533.14,882.61 L 533.33,882.64 L 635.86,906.58 L 635.91,906.58 L 635.95,906.57 L 651.46,899.57 L 651.50,899.55 L 651.50,899.50 L 646.70,854.92 L 646.69,854.88 L 646.66,854.85 L 543.81,783.01 L 543.65,782.88 L 543.51,782.74 L 543.37,782.59 L 543.26,782.42 L 543.16,782.24 L 543.08,782.05 L 543.02,781.86 L 542.98,781.66 L 542.96,781.46 L 542.96,781.25 L 558.92,514.54 L 558.94,514.35 L 558.98,514.16 L 559.04,513.98 L 559.11,513.80 L 559.20,513.63 L 559.31,513.47 L 559.43,513.32 L 559.57,513.19 L 559.71,513.07 L 559.87,512.96 L 560.04,512.86 L 560.22,512.79 L 560.40,512.73 L 560.59,512.69 L 560.78,512.67 L 560.97,512.66 L 561.16,512.68 L 605.63,518.25 L 605.68,518.25 L 605.72,518.25 L 651.70,510.49 L 651.89,510.47 L 652.08,510.46 L 652.27,510.48 L 652.45,510.51 L 652.64,510.56 L 652.82,510.63 L 652.99,510.71 L 653.15,510.81 L 653.30,510.92 L 653.44,511.05 L 675.25,532.89 L 675.29,532.92 L 675.33,532.91 L 711.02,527.26 L 711.22,527.24 L 711.41,527.24 L 711.61,527.25 L 711.80,527.29 L 711.98,527.34 L 712.16,527.41 L 712.34,527.50 L 753.52,551.33 L 753.56,551.35 L 753.61,551.36 L 798.13,552.88 L 798.31,552.89 L 798.50,552.93 L 798.68,552.98 L 870.82,576.68 L 870.87,576.70 L 870.91,576.70 L 886.40,575.88 L 886.44,575.87 L 886.45,575.83 L 888.66,556.28 L 888.66,556.14 L 887.98,526.50 L 887.97,526.45 L 887.94,526.42 L 868.50,511.80 L 868.46,511.78 L 868.42,511.76 L 656.13,406.80 L 655.95,406.70 L 655.78,406.58 L 655.63,406.44 L 655.49,406.30 L 655.36,406.13 L 655.26,405.96 L 655.17,405.77 L 655.10,405.58 L 655.05,405.38 L 655.02,405.18 L 655.01,404.98 L 655.77,356.15 L 655.77,356.11 L 655.76,356.07 L 642.45,327.27 L 642.43,327.23 L 642.39,327.23 L 601.80,327.33 L 601.75,327.33 L 601.73,327.38 L 586.93,364.22 L 586.84,364.41 L 586.74,364.58 L 586.62,364.74 L 586.49,364.89 L 586.34,365.03 L 586.17,365.15 L 586.00,365.25 L 585.82,365.33 L 585.63,365.40 L 585.43,365.44 L 585.23,365.47 L 585.03,365.48 L 584.83,365.46 L 584.63,365.43 L 584.43,365.37 L 584.25,365.30 L 562.52,355.38 L 562.34,355.29 L 562.18,355.19 L 562.02,355.06 L 561.88,354.92 L 561.76,354.77 L 561.65,354.61 L 561.55,354.44 L 561.47,354.25 L 561.41,354.07 L 561.37,353.87 L 561.35,353.68 L 549.84,142.83 L 549.84,142.78 L 549.82,142.74 L 525.19,84.56 L 525.17,84.52 L 525.14,84.49 L 504.83,70.03 L 504.79,70.00 L 504.75,70.02 L 477.21,83.24 L 477.17,83.26 L 477.15,83.30 L 450.54,149.89 L 450.52,149.93 L 450.52,149.98 L 448.68,326.49 L 448.67,326.66 L 448.64,326.84 L 448.60,327.00 L 448.55,327.17 L 438.26,354.84 L 438.18,355.02 L 438.09,355.19 L 437.97,355.36 L 437.84,355.51 L 437.70,355.65 L 437.54,355.77 L 437.38,355.88 L 423.00,364.06 L 422.82,364.15 L 422.63,364.22 L 422.44,364.27 L 422.25,364.31 L 422.05,364.32 L 421.85,364.31 L 421.65,364.29 L 421.46,364.24 L 421.27,364.18 L 421.09,364.10 L 420.92,364.00 L 420.76,363.88 L 420.61,363.75 L 420.48,363.60 L 420.36,363.45 L 420.25,363.28 L 400.39,326.73 L 400.36,326.69 L 400.32,326.69 L 360.52,325.88 L 360.48,325.88 L 360.44,325.91 L 348.85,338.32 L 348.82,338.36 L 348.82,338.40 L 341.54,408.90 L 341.51,409.10 L 341.46,409.29 L 341.39,409.48 L 341.30,409.66 L 341.19,409.84 L 341.07,410.00 L 340.93,410.14 L 340.78,410.27 L 340.61,410.39 L 340.43,410.49 L 131.45,512.21 L 131.40,512.23 L 131.38,512.27 L 111.36,547.77 L 111.34,547.81 Z" fill="rgb(248, 196, 0)" fill-rule="evenodd" stroke="rgb(18, 25, 32)" stroke-width="15.1" stroke-linejoin="round" stroke-linecap="round"/>
</svg>
