<svg xmlns="http://www.w3.org/2000/svg" viewBox="0 0 1000 1000" width="1000" height="1000">
<path d="M 80.08,603.21 L 80.02,603.65 L 80.00,604.09 L 80.02,604.54 L 80.08,604.98 L 80.92,609.36 L 81.02,609.78 L 81.15,610.19 L 81.32,610.58 L 81.53,610.96 L 84.05,615.07 L 84.34,615.50 L 84.68,615.89 L 85.06,616.24 L 89.18,619.67 L 89.55,619.95 L 89.94,620.20 L 90.36,620.40 L 95.75,622.69 L 96.15,622.84 L 96.56,622.95 L 96.99,623.02 L 103.28,623.85 L 103.69,623.89 L 104.11,623.89 L 284.39,615.86 L 284.50,615.86 L 285.10,615.86 L 285.34,615.87 L 285.88,615.93 L 286.11,615.96 L 286.64,616.07 L 286.86,616.13 L 287.38,616.29 L 287.60,616.36 L 288.10,616.57 L 288.31,616.67 L 288.79,616.93 L 288.98,617.05 L 289.43,617.35 L 289.62,617.49 L 290.04,617.83 L 290.21,617.99 L 290.59,618.37 L 290.75,618.55 L 291.09,618.97 L 291.23,619.15 L 291.57,619.65 L 291.59,619.69 L 291.65,619.79 L 291.78,619.97 L 291.91,620.16 L 292.79,621.34 L 292.93,621.53 L 293.03,621.65 L 293.18,621.82 L 294.17,622.91 L 294.33,623.08 L 294.44,623.19 L 294.61,623.35 L 295.70,624.34 L 295.88,624.50 L 296.00,624.59 L 296.18,624.74 L 297.36,625.61 L 297.55,625.75 L 297.68,625.83 L 297.88,625.96 L 299.14,626.72 L 299.34,626.83 L 299.48,626.90 L 299.69,627.01 L 301.02,627.64 L 301.23,627.73 L 301.38,627.79 L 301.59,627.88 L 302.98,628.37 L 303.20,628.45 L 303.35,628.49 L 303.58,628.55 L 305.00,628.91 L 305.23,628.96 L 305.38,628.99 L 305.61,629.03 L 307.07,629.25 L 307.30,629.28 L 307.45,629.29 L 307.69,629.31 L 309.16,629.38 L 309.39,629.39 L 309.55,629.39 L 309.78,629.38 L 311.25,629.31 L 311.48,629.29 L 311.64,629.28 L 311.87,629.25 L 313.32,629.03 L 313.55,628.99 L 313.71,628.96 L 313.93,628.91 L 315.36,628.55 L 315.59,628.49 L 315.73,628.45 L 315.96,628.37 L 317.34,627.88 L 317.56,627.79 L 317.70,627.73 L 317.92,627.64 L 319.25,627.01 L 319.45,626.90 L 319.59,626.83 L 319.79,626.72 L 321.06,625.96 L 321.25,625.83 L 321.38,625.75 L 321.57,625.61 L 322.76,624.74 L 322.94,624.59 L 323.06,624.50 L 323.24,624.34 L 324.33,623.35 L 324.50,623.19 L 324.61,623.08 L 324.77,622.91 L 325.75,621.82 L 325.91,621.65 L 326.01,621.53 L 326.15,621.34 L 327.03,620.16 L 327.16,619.97 L 327.25,619.84 L 327.37,619.64 L 328.13,618.38 L 328.24,618.18 L 328.43,617.83 L 328.48,617.73 L 328.78,617.24 L 328.90,617.05 L 329.21,616.63 L 329.35,616.46 L 329.70,616.07 L 329.86,615.91 L 330.24,615.55 L 330.41,615.40 L 330.82,615.09 L 331.00,614.96 L 331.45,614.68 L 331.64,614.57 L 332.11,614.33 L 332.31,614.24 L 332.80,614.05 L 333.01,613.98 L 333.51,613.84 L 333.73,613.79 L 334.24,613.69 L 334.46,613.66 L 335.04,613.60 L 335.15,613.60 L 446.70,608.63 L 446.82,608.63 L 447.44,608.63 L 447.67,608.64 L 448.23,608.70 L 448.47,608.74 L 449.02,608.86 L 449.25,608.92 L 449.78,609.09 L 450.01,609.17 L 450.52,609.39 L 450.73,609.50 L 451.22,609.77 L 451.43,609.90 L 451.88,610.22 L 452.07,610.37 L 452.50,610.74 L 452.67,610.90 L 453.05,611.31 L 453.21,611.49 L 453.55,611.94 L 453.69,612.13 L 453.98,612.61 L 454.10,612.82 L 454.34,613.32 L 454.44,613.54 L 454.63,614.07 L 454.70,614.30 L 454.84,614.84 L 454.89,615.07 L 454.98,615.63 L 455.00,615.86 L 455.03,616.48 L 455.03,616.60 L 455.03,710.93 L 455.04,711.05 L 455.04,711.14 L 455.04,711.27 L 455.90,727.31 L 455.92,727.53 L 455.93,727.68 L 455.96,727.90 L 458.33,743.89 L 458.36,744.06 L 458.38,744.18 L 458.41,744.35 L 462.02,760.47 L 462.05,760.59 L 462.07,760.67 L 462.10,760.80 L 464.88,770.72 L 464.91,770.83 L 465.05,771.44 L 465.09,771.68 L 465.16,772.24 L 465.17,772.48 L 465.18,773.04 L 465.18,773.28 L 465.13,773.84 L 465.10,774.08 L 465.00,774.63 L 464.94,774.87 L 464.78,775.41 L 464.70,775.63 L 464.49,776.16 L 464.39,776.37 L 464.12,776.87 L 464.00,777.08 L 463.69,777.55 L 463.54,777.74 L 463.19,778.17 L 463.02,778.35 L 462.62,778.75 L 462.44,778.91 L 462.00,779.26 L 461.81,779.40 L 461.34,779.71 L 461.13,779.83 L 460.57,780.11 L 460.47,780.16 L 333.45,837.41 L 333.34,837.46 L 332.78,837.67 L 332.57,837.75 L 332.05,837.90 L 331.82,837.95 L 331.23,838.06 L 331.12,838.07 L 327.83,838.51 L 327.41,838.58 L 326.99,838.70 L 326.59,838.85 L 323.19,840.29 L 322.78,840.49 L 322.38,840.73 L 322.01,841.01 L 319.47,843.13 L 319.09,843.48 L 318.75,843.87 L 318.46,844.30 L 316.95,846.76 L 316.75,847.13 L 316.57,847.53 L 316.44,847.93 L 316.34,848.35 L 315.86,850.90 L 315.79,851.34 L 315.77,851.78 L 315.79,852.23 L 315.86,852.67 L 316.34,855.22 L 316.44,855.64 L 316.57,856.04 L 316.75,856.44 L 316.95,856.81 L 318.46,859.27 L 318.75,859.69 L 319.09,860.09 L 319.47,860.44 L 322.01,862.56 L 322.38,862.84 L 322.78,863.08 L 323.19,863.28 L 326.59,864.72 L 326.99,864.87 L 327.41,864.99 L 327.83,865.06 L 331.82,865.59 L 332.33,865.63 L 332.84,865.61 L 468.69,854.13 L 469.15,854.07 L 469.59,853.97 L 470.02,853.82 L 470.44,853.64 L 470.83,853.41 L 471.21,853.15 L 471.55,852.86 L 471.87,852.53 L 472.15,852.17 L 472.40,851.79 L 472.61,851.39 L 472.78,850.96 L 472.91,850.53 L 473.00,850.08 L 473.04,849.63 L 473.05,849.43 L 473.08,849.20 L 473.15,848.66 L 473.20,848.43 L 473.33,847.91 L 473.40,847.69 L 473.58,847.18 L 473.67,846.96 L 473.90,846.47 L 474.01,846.27 L 474.28,845.80 L 474.41,845.61 L 474.73,845.17 L 474.88,844.99 L 475.24,844.59 L 475.41,844.42 L 475.81,844.06 L 475.99,843.91 L 476.42,843.59 L 476.61,843.46 L 477.07,843.18 L 477.28,843.06 L 477.77,842.83 L 477.98,842.74 L 478.49,842.56 L 478.71,842.49 L 479.24,842.35 L 479.46,842.30 L 480.00,842.22 L 480.23,842.20 L 480.77,842.17 L 481.00,842.16 L 481.54,842.19 L 481.78,842.21 L 482.31,842.28 L 482.54,842.33 L 483.07,842.45 L 483.29,842.52 L 483.80,842.70 L 484.02,842.78 L 484.51,843.01 L 484.71,843.12 L 485.18,843.39 L 485.38,843.52 L 485.81,843.84 L 486.00,843.98 L 486.40,844.34 L 486.57,844.50 L 486.94,844.90 L 487.08,845.08 L 487.41,845.51 L 487.54,845.70 L 487.83,846.16 L 487.94,846.37 L 488.18,846.85 L 488.27,847.06 L 488.46,847.57 L 488.53,847.79 L 488.68,848.37 L 488.71,848.49 L 495.35,879.56 L 495.47,880.00 L 495.63,880.44 L 495.83,880.85 L 496.07,881.25 L 496.35,881.61 L 496.66,881.95 L 497.01,882.26 L 497.38,882.53 L 497.78,882.77 L 498.20,882.97 L 498.63,883.12 L 499.08,883.23 L 499.54,883.30 L 500.00,883.32 L 500.46,883.30 L 500.92,883.23 L 501.37,883.12 L 501.80,882.97 L 502.22,882.77 L 502.62,882.53 L 502.99,882.26 L 503.34,881.95 L 503.65,881.61 L 503.93,881.25 L 504.17,880.85 L 504.37,880.44 L 504.53,880.00 L 504.65,879.56 L 511.29,848.49 L 511.32,848.37 L 511.47,847.79 L 511.54,847.57 L 511.73,847.06 L 511.82,846.85 L 512.06,846.37 L 512.17,846.16 L 512.46,845.70 L 512.59,845.51 L 512.92,845.08 L 513.06,844.90 L 513.43,844.50 L 513.60,844.34 L 514.00,843.98 L 514.19,843.84 L 514.62,843.52 L 514.82,843.39 L 515.29,843.12 L 515.49,843.01 L 515.98,842.78 L 516.20,842.70 L 516.71,842.52 L 516.93,842.45 L 517.46,842.33 L 517.69,842.28 L 518.22,842.21 L 518.46,842.19 L 519.00,842.16 L 519.23,842.17 L 519.77,842.20 L 520.00,842.22 L 520.54,842.30 L 520.76,842.35 L 521.29,842.49 L 521.51,842.56 L 522.02,842.74 L 522.23,842.83 L 522.72,843.06 L 522.93,843.18 L 523.39,843.46 L 523.58,843.59 L 524.01,843.91 L 524.19,844.06 L 524.59,844.42 L 524.76,844.59 L 525.12,844.99 L 525.27,845.17 L 525.59,845.61 L 525.72,845.80 L 525.99,846.27 L 526.10,846.47 L 526.33,846.96 L 526.42,847.18 L 526.60,847.69 L 526.67,847.91 L 526.80,848.43 L 526.85,848.66 L 526.92,849.20 L 526.95,849.43 L 526.96,849.63 L 527.00,850.08 L 527.09,850.53 L 527.22,850.96 L 527.39,851.39 L 527.60,851.79 L 527.85,852.17 L 528.13,852.53 L 528.45,852.86 L 528.79,853.15 L 529.17,853.41 L 529.56,853.64 L 529.98,853.82 L 530.41,853.97 L 530.85,854.07 L 531.31,854.13 L 667.16,865.61 L 667.67,865.63 L 668.18,865.59 L 672.17,865.06 L 672.59,864.99 L 673.01,864.87 L 673.41,864.72 L 676.81,863.28 L 677.22,863.08 L 677.62,862.84 L 677.99,862.56 L 680.53,860.44 L 680.91,860.09 L 681.25,859.69 L 681.54,859.27 L 683.05,856.81 L 683.25,856.44 L 683.43,856.04 L 683.56,855.64 L 683.66,855.22 L 684.14,852.67 L 684.21,852.23 L 684.23,851.78 L 684.21,851.34 L 684.14,850.90 L 683.66,848.35 L 683.56,847.93 L 683.43,847.53 L 683.25,847.13 L 683.05,846.76 L 681.54,844.30 L 681.25,843.87 L 680.91,843.48 L 680.53,843.13 L 677.99,841.01 L 677.62,840.73 L 677.22,840.49 L 676.81,840.29 L 673.41,838.85 L 673.01,838.70 L 672.59,838.58 L 672.17,838.51 L 668.88,838.07 L 668.77,838.06 L 668.18,837.95 L 667.95,837.90 L 667.43,837.75 L 667.22,837.67 L 666.66,837.46 L 666.55,837.41 L 539.53,780.16 L 539.43,780.11 L 538.87,779.83 L 538.66,779.71 L 538.19,779.40 L 538.00,779.26 L 537.56,778.91 L 537.38,778.75 L 536.98,778.35 L 536.81,778.17 L 536.46,777.74 L 536.31,777.55 L 536.00,777.08 L 535.88,776.87 L 535.61,776.37 L 535.51,776.16 L 535.30,775.63 L 535.22,775.41 L 535.06,774.87 L 535.00,774.63 L 534.90,774.08 L 534.87,773.84 L 534.82,773.28 L 534.82,773.04 L 534.83,772.48 L 534.84,772.24 L 534.91,771.68 L 534.95,771.44 L 535.09,770.83 L 535.12,770.72 L 537.90,760.80 L 537.93,760.67 L 537.95,760.59 L 537.98,760.47 L 541.59,744.35 L 541.62,744.18 L 541.64,744.06 L 541.67,743.89 L 544.04,727.90 L 544.07,727.68 L 544.08,727.53 L 544.10,727.31 L 544.96,711.27 L 544.96,711.14 L 544.96,711.05 L 544.97,710.93 L 544.97,616.60 L 544.97,616.48 L 545.00,615.86 L 545.02,615.63 L 545.11,615.07 L 545.16,614.84 L 545.30,614.30 L 545.37,614.07 L 545.56,613.54 L 545.66,613.32 L 545.90,612.82 L 546.02,612.61 L 546.31,612.13 L 546.45,611.94 L 546.79,611.49 L 546.95,611.31 L 547.33,610.90 L 547.50,610.74 L 547.93,610.37 L 548.12,610.22 L 548.57,609.90 L 548.78,609.77 L 549.27,609.50 L 549.48,609.39 L 549.99,609.17 L 550.22,609.09 L 550.75,608.92 L 550.98,608.86 L 551.53,608.74 L 551.77,608.70 L 552.33,608.64 L 552.56,608.63 L 553.18,608.63 L 553.30,608.63 L 664.85,613.60 L 664.96,613.60 L 665.54,613.66 L 665.76,613.69 L 666.27,613.79 L 666.49,613.84 L 666.99,613.98 L 667.20,614.05 L 667.69,614.24 L 667.89,614.33 L 668.36,614.57 L 668.55,614.68 L 669.00,614.96 L 669.18,615.09 L 669.59,615.40 L 669.76,615.55 L 670.14,615.91 L 670.30,616.07 L 670.65,616.46 L 670.79,616.63 L 671.10,617.05 L 671.22,617.24 L 671.52,617.73 L 671.57,617.83 L 671.76,618.18 L 671.87,618.38 L 672.63,619.64 L 672.75,619.84 L 672.84,619.97 L 672.97,620.16 L 673.85,621.34 L 673.99,621.53 L 674.09,621.65 L 674.25,621.82 L 675.23,622.91 L 675.39,623.08 L 675.50,623.19 L 675.67,623.35 L 676.76,624.34 L 676.94,624.50 L 677.06,624.59 L 677.24,624.74 L 678.43,625.61 L 678.62,625.75 L 678.75,625.83 L 678.94,625.96 L 680.21,626.72 L 680.41,626.83 L 680.55,626.90 L 680.75,627.01 L 682.08,627.64 L 682.30,627.73 L 682.44,627.79 L 682.66,627.88 L 684.04,628.37 L 684.27,628.45 L 684.41,628.49 L 684.64,628.55 L 686.07,628.91 L 686.29,628.96 L 686.45,628.99 L 686.68,629.03 L 688.13,629.25 L 688.36,629.28 L 688.52,629.29 L 688.75,629.31 L 690.22,629.38 L 690.45,629.39 L 690.61,629.39 L 690.84,629.38 L 692.31,629.31 L 692.55,629.29 L 692.70,629.28 L 692.93,629.25 L 694.39,629.03 L 694.62,628.99 L 694.77,628.96 L 695.00,628.91 L 696.42,628.55 L 696.65,628.49 L 696.80,628.45 L 697.02,628.37 L 698.41,627.88 L 698.62,627.79 L 698.77,627.73 L 698.98,627.64 L 700.31,627.01 L 700.52,626.90 L 700.66,626.83 L 700.86,626.72 L 702.12,625.96 L 702.32,625.83 L 702.45,625.75 L 702.64,625.61 L 703.82,624.74 L 704.00,624.59 L 704.12,624.50 L 704.30,624.34 L 705.39,623.35 L 705.56,623.19 L 705.67,623.08 L 705.83,622.91 L 706.82,621.82 L 706.97,621.65 L 707.07,621.53 L 707.21,621.34 L 708.09,620.16 L 708.22,619.97 L 708.35,619.79 L 708.41,619.69 L 708.43,619.65 L 708.77,619.15 L 708.91,618.97 L 709.25,618.55 L 709.41,618.37 L 709.79,617.99 L 709.96,617.83 L 710.38,617.49 L 710.57,617.35 L 711.02,617.05 L 711.21,616.93 L 711.69,616.67 L 711.90,616.57 L 712.40,616.36 L 712.62,616.29 L 713.14,616.13 L 713.36,616.07 L 713.89,615.96 L 714.12,615.93 L 714.66,615.87 L 714.90,615.86 L 715.50,615.86 L 715.61,615.86 L 895.89,623.89 L 896.31,623.89 L 896.72,623.85 L 903.01,623.02 L 903.44,622.95 L 903.85,622.84 L 904.25,622.69 L 909.64,620.40 L 910.06,620.20 L 910.45,619.95 L 910.82,619.67 L 914.94,616.24 L 915.32,615.89 L 915.66,615.50 L 915.95,615.07 L 918.47,610.96 L 918.68,610.58 L 918.85,610.19 L 918.98,609.78 L 919.08,609.36 L 919.92,604.98 L 919.98,604.54 L 920.00,604.09 L 919.98,603.65 L 919.92,603.21 L 919.08,598.82 L 918.98,598.40 L 918.85,598.00 L 918.68,597.61 L 918.47,597.23 L 915.95,593.12 L 915.66,592.69 L 915.32,592.30 L 914.94,591.94 L 910.82,588.51 L 910.45,588.23 L 910.06,587.99 L 909.64,587.79 L 904.25,585.50 L 903.85,585.35 L 903.44,585.24 L 903.01,585.16 L 897.42,584.43 L 897.32,584.41 L 896.78,584.31 L 896.57,584.27 L 896.09,584.13 L 895.88,584.07 L 895.37,583.88 L 895.27,583.84 L 716.76,508.29 L 716.66,508.24 L 716.12,507.98 L 715.91,507.87 L 715.45,507.59 L 715.26,507.46 L 714.83,507.14 L 714.65,506.99 L 714.25,506.62 L 714.09,506.46 L 713.73,506.06 L 713.58,505.88 L 713.26,505.44 L 713.13,505.25 L 712.85,504.78 L 712.75,504.58 L 712.52,504.09 L 712.43,503.87 L 712.25,503.37 L 712.18,503.14 L 712.05,502.62 L 712.01,502.39 L 711.93,501.86 L 711.90,501.63 L 711.87,501.03 L 711.87,500.91 L 711.87,465.54 L 711.87,465.42 L 711.87,465.35 L 711.86,465.23 L 711.78,463.61 L 711.77,463.37 L 711.75,463.22 L 711.72,462.99 L 711.51,461.53 L 711.47,461.30 L 711.44,461.15 L 711.39,460.92 L 711.03,459.49 L 710.97,459.27 L 710.92,459.12 L 710.85,458.90 L 710.35,457.51 L 710.27,457.29 L 710.21,457.15 L 710.11,456.94 L 709.49,455.61 L 709.38,455.40 L 709.31,455.26 L 709.19,455.06 L 708.44,453.80 L 708.31,453.60 L 708.22,453.47 L 708.09,453.28 L 707.21,452.10 L 707.07,451.91 L 706.97,451.79 L 706.82,451.62 L 705.83,450.53 L 705.67,450.36 L 705.56,450.25 L 705.39,450.09 L 704.30,449.10 L 704.12,448.95 L 704.00,448.85 L 703.82,448.70 L 702.64,447.83 L 702.45,447.69 L 702.32,447.61 L 702.12,447.48 L 700.86,446.73 L 700.66,446.61 L 700.52,446.54 L 700.31,446.43 L 698.98,445.80 L 698.77,445.71 L 698.62,445.65 L 698.41,445.57 L 697.02,445.07 L 696.80,445.00 L 696.65,444.95 L 696.42,444.89 L 695.00,444.53 L 694.77,444.48 L 694.62,444.45 L 694.39,444.41 L 692.93,444.19 L 692.70,444.17 L 692.55,444.15 L 692.31,444.13 L 690.84,444.06 L 690.61,444.06 L 690.45,444.06 L 690.22,444.06 L 688.75,444.13 L 688.52,444.15 L 688.36,444.17 L 688.13,444.19 L 686.68,444.41 L 686.45,444.45 L 686.29,444.48 L 686.07,444.53 L 684.64,444.89 L 684.41,444.95 L 684.27,445.00 L 684.04,445.07 L 682.66,445.57 L 682.44,445.65 L 682.30,445.71 L 682.08,445.80 L 680.75,446.43 L 680.55,446.54 L 680.41,446.61 L 680.21,446.73 L 678.94,447.48 L 678.75,447.61 L 678.62,447.69 L 678.43,447.83 L 677.24,448.70 L 677.06,448.85 L 676.94,448.95 L 676.76,449.10 L 675.67,450.09 L 675.50,450.25 L 675.39,450.36 L 675.23,450.53 L 674.25,451.62 L 674.09,451.79 L 673.99,451.91 L 673.85,452.10 L 672.97,453.28 L 672.84,453.47 L 672.75,453.60 L 672.63,453.80 L 671.87,455.06 L 671.76,455.26 L 671.68,455.40 L 671.58,455.61 L 670.95,456.94 L 670.86,457.15 L 670.80,457.29 L 670.71,457.51 L 670.22,458.90 L 670.14,459.12 L 670.10,459.27 L 670.04,459.49 L 669.68,460.92 L 669.63,461.15 L 669.60,461.30 L 669.56,461.53 L 669.34,462.99 L 669.31,463.22 L 669.30,463.37 L 669.28,463.61 L 669.20,465.23 L 669.20,465.35 L 669.19,465.42 L 669.19,465.54 L 669.19,476.14 L 669.19,476.26 L 669.16,476.86 L 669.14,477.09 L 669.06,477.63 L 669.01,477.86 L 668.88,478.39 L 668.81,478.62 L 668.62,479.13 L 668.53,479.35 L 668.30,479.84 L 668.19,480.05 L 667.91,480.52 L 667.78,480.71 L 667.45,481.15 L 667.30,481.33 L 666.93,481.73 L 666.77,481.90 L 666.36,482.26 L 666.18,482.41 L 665.74,482.74 L 665.54,482.86 L 665.07,483.14 L 664.87,483.25 L 664.37,483.48 L 664.16,483.57 L 663.64,483.76 L 663.42,483.82 L 662.88,483.95 L 662.65,484.00 L 662.11,484.07 L 661.88,484.10 L 661.33,484.12 L 661.10,484.12 L 660.56,484.09 L 660.32,484.06 L 659.78,483.98 L 659.55,483.93 L 659.02,483.80 L 658.80,483.73 L 658.23,483.52 L 658.12,483.47 L 549.86,437.65 L 549.75,437.61 L 549.21,437.35 L 549.01,437.24 L 548.55,436.95 L 548.35,436.82 L 547.92,436.50 L 547.74,436.35 L 547.34,435.99 L 547.18,435.82 L 546.82,435.42 L 546.67,435.24 L 546.35,434.80 L 546.23,434.61 L 545.95,434.15 L 545.84,433.94 L 545.61,433.45 L 545.52,433.24 L 545.34,432.73 L 545.27,432.51 L 545.14,431.98 L 545.10,431.75 L 545.02,431.22 L 545.00,430.99 L 544.97,430.39 L 544.97,430.27 L 544.97,235.59 L 544.97,235.54 L 544.97,235.51 L 544.96,235.47 L 544.75,223.99 L 544.75,223.90 L 544.75,223.84 L 544.74,223.76 L 544.11,212.45 L 544.10,212.36 L 544.10,212.30 L 544.09,212.21 L 543.04,201.14 L 543.03,201.05 L 543.02,200.98 L 543.01,200.89 L 541.56,190.16 L 541.55,190.06 L 541.54,190.00 L 541.52,189.90 L 539.68,179.63 L 539.66,179.52 L 539.65,179.45 L 539.62,179.34 L 537.42,169.63 L 537.39,169.51 L 537.38,169.44 L 537.34,169.32 L 534.81,160.28 L 534.77,160.15 L 534.74,160.06 L 534.70,159.93 L 531.86,151.65 L 531.81,151.51 L 531.77,151.41 L 531.72,151.27 L 528.62,143.85 L 528.55,143.68 L 528.50,143.57 L 528.42,143.41 L 525.11,136.93 L 525.01,136.74 L 524.94,136.61 L 524.83,136.43 L 521.39,130.97 L 521.24,130.75 L 521.14,130.61 L 520.98,130.40 L 517.48,126.03 L 517.27,125.78 L 517.12,125.62 L 516.89,125.38 L 513.35,122.04 L 513.04,121.77 L 512.71,121.53 L 509.19,119.20 L 508.76,118.94 L 508.30,118.74 L 504.95,117.42 L 504.40,117.24 L 503.83,117.13 L 500.61,116.72 L 500.20,116.68 L 499.80,116.68 L 499.39,116.72 L 496.17,117.13 L 495.60,117.24 L 495.05,117.42 L 491.70,118.74 L 491.24,118.94 L 490.81,119.20 L 487.29,121.53 L 486.96,121.77 L 486.65,122.04 L 483.11,125.38 L 482.88,125.62 L 482.73,125.78 L 482.52,126.03 L 479.02,130.40 L 478.86,130.61 L 478.76,130.75 L 478.61,130.97 L 475.17,136.43 L 475.06,136.61 L 474.99,136.74 L 474.89,136.93 L 471.58,143.41 L 471.50,143.57 L 471.45,143.68 L 471.38,143.85 L 468.28,151.27 L 468.23,151.41 L 468.19,151.51 L 468.14,151.65 L 465.30,159.93 L 465.26,160.06 L 465.23,160.15 L 465.19,160.28 L 462.66,169.32 L 462.62,169.44 L 462.61,169.51 L 462.58,169.63 L 460.38,179.34 L 460.35,179.45 L 460.34,179.52 L 460.32,179.63 L 458.48,189.90 L 458.46,190.00 L 458.45,190.06 L 458.44,190.16 L 456.99,200.89 L 456.98,200.98 L 456.97,201.05 L 456.96,201.14 L 455.91,212.21 L 455.90,212.30 L 455.90,212.36 L 455.89,212.45 L 455.26,223.76 L 455.25,223.84 L 455.25,223.90 L 455.25,223.99 L 455.04,235.47 L 455.03,235.51 L 455.03,235.54 L 455.03,235.59 L 455.03,430.27 L 455.03,430.39 L 455.00,430.99 L 454.98,431.22 L 454.90,431.75 L 454.86,431.98 L 454.73,432.51 L 454.66,432.73 L 454.48,433.24 L 454.39,433.45 L 454.16,433.94 L 454.05,434.15 L 453.77,434.61 L 453.65,434.80 L 453.33,435.24 L 453.18,435.42 L 452.82,435.82 L 452.66,435.99 L 452.26,436.35 L 452.08,436.50 L 451.65,436.82 L 451.45,436.95 L 450.99,437.24 L 450.79,437.35 L 450.25,437.61 L 450.14,437.65 L 341.88,483.47 L 341.77,483.52 L 341.20,483.73 L 340.98,483.80 L 340.45,483.93 L 340.22,483.98 L 339.68,484.06 L 339.44,484.09 L 338.90,484.12 L 338.67,484.12 L 338.12,484.10 L 337.89,484.07 L 337.35,484.00 L 337.12,483.95 L 336.58,483.82 L 336.36,483.76 L 335.84,483.57 L 335.63,483.48 L 335.13,483.25 L 334.93,483.14 L 334.46,482.86 L 334.26,482.74 L 333.82,482.41 L 333.64,482.26 L 333.23,481.90 L 333.07,481.73 L 332.70,481.33 L 332.55,481.15 L 332.22,480.71 L 332.09,480.52 L 331.81,480.05 L 331.70,479.84 L 331.47,479.35 L 331.38,479.13 L 331.19,478.62 L 331.12,478.39 L 330.99,477.86 L 330.94,477.63 L 330.86,477.09 L 330.84,476.86 L 330.81,476.26 L 330.81,476.14 L 330.81,465.54 L 330.81,465.42 L 330.80,465.35 L 330.80,465.23 L 330.72,463.61 L 330.70,463.37 L 330.69,463.22 L 330.66,462.99 L 330.44,461.53 L 330.40,461.30 L 330.37,461.15 L 330.32,460.92 L 329.96,459.49 L 329.90,459.27 L 329.86,459.12 L 329.78,458.90 L 329.29,457.51 L 329.20,457.29 L 329.14,457.15 L 329.05,456.94 L 328.42,455.61 L 328.32,455.40 L 328.24,455.26 L 328.13,455.06 L 327.37,453.80 L 327.25,453.60 L 327.16,453.47 L 327.03,453.28 L 326.15,452.10 L 326.01,451.91 L 325.91,451.79 L 325.75,451.62 L 324.77,450.53 L 324.61,450.36 L 324.50,450.25 L 324.33,450.09 L 323.24,449.10 L 323.06,448.95 L 322.94,448.85 L 322.76,448.70 L 321.57,447.83 L 321.38,447.69 L 321.25,447.61 L 321.06,447.48 L 319.79,446.73 L 319.59,446.61 L 319.45,446.54 L 319.25,446.43 L 317.92,445.80 L 317.70,445.71 L 317.56,445.65 L 317.34,445.57 L 315.96,445.07 L 315.73,445.00 L 315.59,444.95 L 315.36,444.89 L 313.93,444.53 L 313.71,444.48 L 313.55,444.45 L 313.32,444.41 L 311.87,444.19 L 311.64,444.17 L 311.48,444.15 L 311.25,444.13 L 309.78,444.06 L 309.55,444.06 L 309.39,444.06 L 309.16,444.06 L 307.69,444.13 L 307.45,444.15 L 307.30,444.17 L 307.07,444.19 L 305.61,444.41 L 305.38,444.45 L 305.23,444.48 L 305.00,444.53 L 303.58,444.89 L 303.35,444.95 L 303.20,445.00 L 302.98,445.07 L 301.59,445.57 L 301.38,445.65 L 301.23,445.71 L 301.02,445.80 L 299.69,446.43 L 299.48,446.54 L 299.34,446.61 L 299.14,446.73 L 297.88,447.48 L 297.68,447.61 L 297.55,447.69 L 297.36,447.83 L 296.18,448.70 L 296.00,448.85 L 295.88,448.95 L 295.70,449.10 L 294.61,450.09 L 294.44,450.25 L 294.33,450.36 L 294.17,450.53 L 293.18,451.62 L 293.03,451.79 L 292.93,451.91 L 292.79,452.10 L 291.91,453.28 L 291.78,453.47 L 291.69,453.60 L 291.56,453.80 L 290.81,455.06 L 290.69,455.26 L 290.62,455.40 L 290.51,455.61 L 289.89,456.94 L 289.79,457.15 L 289.73,457.29 L 289.65,457.51 L 289.15,458.90 L 289.08,459.12 L 289.03,459.27 L 288.97,459.49 L 288.61,460.92 L 288.56,461.15 L 288.53,461.30 L 288.49,461.53 L 288.28,462.99 L 288.25,463.22 L 288.23,463.37 L 288.22,463.61 L 288.14,465.23 L 288.13,465.35 L 288.13,465.42 L 288.13,465.54 L 288.13,500.91 L 288.13,501.03 L 288.10,501.63 L 288.07,501.86 L 287.99,502.39 L 287.95,502.62 L 287.82,503.14 L 287.75,503.37 L 287.57,503.87 L 287.48,504.09 L 287.25,504.58 L 287.15,504.78 L 286.87,505.25 L 286.74,505.44 L 286.42,505.88 L 286.27,506.06 L 285.91,506.46 L 285.75,506.62 L 285.35,506.99 L 285.17,507.14 L 284.74,507.46 L 284.55,507.59 L 284.09,507.87 L 283.88,507.98 L 283.34,508.24 L 283.24,508.29 L 104.73,583.84 L 104.63,583.88 L 104.12,584.07 L 103.91,584.13 L 103.43,584.27 L 103.22,584.31 L 102.68,584.41 L 102.58,584.43 L 96.99,585.16 L 96.56,585.24 L 96.15,585.35 L 95.75,585.50 L 90.36,587.79 L 89.94,587.99 L 89.55,588.23 L 89.18,588.51 L 85.06,591.94 L 84.68,592.30 L 84.34,592.69 L 84.05,593.12 L 81.53,597.23 L 81.32,597.61 L 81.15,598.00 L 81.02,598.40 L 80.92,598.82 L 80.08,603.21 Z" fill="rgb(248, 196, 0)" fill-rule="evenodd" stroke="rgb(18, 25, 32)" stroke-width="14.8" stroke-linejoin="round" stroke-linecap="round"/>
</svg>
